<svg version="1.2" xmlns="http://www.w3.org/2000/svg" width="492.661" height="76.52mm" viewBox="0 0 130.35 76.52"><desc>Generated by the Chemistry Development Kit (http://github.com/cdk)</desc><g stroke-linecap="round" stroke-linejoin="round" stroke="#000" stroke-width=".27"><path fill="#FFF" d="M0 0h131v77H0z" stroke="none"/><g class="mol"><path class="bond" d="M69.61 2.77l-4.45 2.59m0 0l-5.5-3.24m4.32 3.93l-4.35-2.57m.03-1.36l-5.75 3.05m0 0l.1 6.6m1.1-5.89l.08 5.2m-1.18.69l-5.71 3.32m0 0l.02 4.81m-5.77 5l.14.24m.62-.8l.24.4m.53-.96l.33.57m.44-1.13l.43.74m.33-1.3l.53.91m.24-1.46l.63 1.07m-4.39 1.84l-4.27-2.43m-3.08.01l-4.19 2.42"/><path class="bond" d="M31.01 25.14l.14-.24L26 21.19l-.77.45-.87.5z" stroke="none"/><path class="bond" d="M25.36 21.71l-4.18 2.42m-3.07 0l-2.87-1.66m15.84 2.55v6.56m.07.12l-.14-.24m-.63.79l-.23-.41m-.54.96l-.33-.57m-.44 1.13l-.43-.75m-.34 1.3l-.52-.91m-.25 1.47l-.62-1.09m-2.86.59l-2.86-1.66m10.12-.73l5.73 3.34"/><path class="bond" d="M36.94 34.92h-.27l-.51 4.81h1.26z" stroke="none"/><path class="bond" d="M35.24 42.41L32.3 44.1m4.51-9.18l5.81-3.34m0-6.56v6.56"/><path class="bond" d="M42.69 31.46l-.14.24 3.93 2.85.32-.55.32-.55z" stroke="none"/><path d="M48.19 41.49h.28m-.37-.95h.46M48 39.6h.66m-.76-.94h.86m-.95-.95h1.05m-1.15-.94h1.25m-.63 4.72l-4.24 2.46m-1.55 2.69l-.02 4.81" class="bond"/><path class="bond" d="M42.59 51.57l-.14-.24-5.8 2.58v1.89z" stroke="none"/><path class="bond" d="M36.79 54.73l-.02 4.81m-1.55 2.68l-2.95 1.68m10.25-12.45l5.67 3.31m.14 0l-.28-.01m.37.95h-.47m.56.94h-.66m.75.95l-.86-.01m.95.95h-1.05m1.14.95l-1.25-.01m2.15 2.79l2.85 1.67m-4.34-9.17l5.77-3.26"/><path class="bond" d="M54.03 51.38l-.14.24 3.91 2.88.32-.55.32-.55zm11.44.32l-.13-.24-4.44 1.95.31.55.31.55z" stroke="none"/><path class="bond" d="M65.4 51.58l.05-4.89m1.56-2.68l4.2-2.4m.12-.06l-.24.13m.32-1.13l-.4.24m.49-1.23l-.57.33m.66-1.32l-.74.43m.83-1.42l-.92.52m1.01-1.51l-1.09.62m1.17-1.62l-1.25.72m1.34-1.71l-1.42.82m.71-.41l4.19-2.4m1.55-2.67l.01-2.98m-5.77 14.65l5.67 3.31"/><path class="bond" d="M76.81 44.8l.14.24 4.43-1.98-.32-.55-.32-.55z" stroke="none"/><path class="bond" d="M82.6 39.83v-2.98m-5.72 8.07l.01 6.62m.06-.11l-.13.23m1 .15l-.23.41m1.09-.02l-.33.58m1.2-.19l-.43.74m1.3-.35l-.53.91m1.39-.52l-.62 1.08"/><path class="bond" d="M88.39 51.67l-.14-.24-4.43 1.98.32.55.32.55z" stroke="none"/><path class="bond" d="M88.32 51.55l.02-4.89m1.55-2.68l4.17-2.43m.12-.07l-.23.13m.31-1.13l-.4.24m.48-1.23l-.57.34m.66-1.33l-.75.43m.83-1.42l-.91.53m.99-1.52l-1.08.62m1.16-1.62l-1.25.73m1.33-1.72l-1.41.82m.7-.41l4.18-2.42m3.08-.01l2.86 1.64m-10.1 7.4l5.69 3.26"/><path class="bond" d="M99.68 44.69l.14.24 4.42-2.01-.32-.55-.32-.55z" stroke="none"/><path class="bond" d="M107 42.36l2.87 1.63m-10.12.82l.06 6.63m.07-.12l-.14.24m.95.16l-.19.33m1 .06l-.25.44m1.06-.04l-.3.53m1.12-.13l-.36.63m1.17-.23l-.42.73m1.23-.34l-.47.83m1.28-.43l-.53.93m1.35-.53l-.59 1.02m1.4-.63l-.64 1.13m1.45-.73l-.7 1.23m3.45-.62l2.86-1.67m-13.8-2.79l-5.8 3.38m-5.69-3.27l5.69 3.27m.14-.01l-.27.01m.37.94h-.47m.57.94h-.66m.76.94l-.85.01m.95.94H93.5m1.15.94h-1.24m2.17 2.77l2.87 1.65M76.89 51.54l-5.82 3.34m-5.67-3.3l5.67 3.3m.14 0h-.28m.37.95l-.47-.01m.56.95h-.66m.76.94h-.86m.95.95l-1.05-.01m1.15.95h-1.25m2.15 2.78l2.86 1.66M53.96 51.5l.04-6.71m-5.67-3.3l5.67 3.3"/><path class="bond" d="M53.93 44.67l.14.24 4.44-1.96-.31-.55-.31-.55z" stroke="none"/><path class="bond" d="M59.74 39.72l.01-2.98m-5.74-24.97l5.5 3.24m0 0l5.75-3.05m-5.72 1.69l4.52-2.4m1.1-5.89l.1 6.6"/><path d="M.56 20.49h.43l1.06 2.01v-2.01h.32v2.4h-.44l-1.06-2v2H.56v-2.4zm3.26 1.49q-.36 0-.49.08-.14.08-.14.28 0 .15.1.25.1.09.28.09.25 0 .4-.17.15-.17.15-.46v-.07h-.3zm.59-.12v1.03h-.29v-.27q-.1.16-.25.24-.15.08-.37.08-.28 0-.44-.16-.16-.16-.16-.41 0-.3.2-.46.2-.15.61-.15h.42v-.03q0-.2-.13-.31-.13-.11-.38-.11-.15 0-.3.04t-.28.11v-.27q.16-.06.32-.09.15-.03.3-.03.39 0 .58.2.19.2.19.61zm.98-1.99v.54h.54v.16h-.54v.54h-.16v-.54h-.54v-.16h.54v-.54h.16zm.89 10.42h.43l1.06 2.01v-2.01h.32v2.4h-.44l-1.06-2v2h-.31v-2.4zm3.26 1.5q-.36 0-.49.08-.14.08-.14.28 0 .15.1.25.1.09.28.09.25 0 .4-.17.15-.17.15-.46v-.07h-.3zm.59-.13v1.03h-.29v-.27q-.1.16-.25.24-.15.08-.37.08-.28 0-.44-.16-.16-.16-.16-.41 0-.3.2-.46.2-.15.61-.15h.42v-.03q0-.2-.13-.31-.13-.11-.38-.11-.15 0-.3.04t-.28.11v-.27q.16-.06.32-.09.15-.03.3-.03.39 0 .58.2.19.2.19.61zm.97-1.99v.54h.54v.16h-.54v.54h-.16v-.54h-.54v-.16h.54v-.54h.16zm12.28 23.8h.43l1.06 2.01v-2.01h.32v2.4h-.44l-1.06-2v2h-.31v-2.4zm3.26 1.5q-.36 0-.49.08-.14.08-.14.28 0 .15.1.25.1.09.28.09.25 0 .4-.17.15-.17.15-.46v-.07h-.3zm.59-.12v1.03h-.29v-.27q-.1.16-.25.24-.15.08-.37.08-.28 0-.44-.16-.16-.16-.16-.41 0-.3.2-.46.2-.15.61-.15h.42v-.03q0-.2-.13-.31-.13-.11-.38-.11-.15 0-.3.04t-.28.11v-.27q.16-.06.32-.09.15-.03.3-.03.39 0 .58.2.19.2.19.61zm.97-2v.54h.54v.16h-.54v.54h-.16v-.54h-.54v-.16h.54v-.54h.16zm-4.86 20.42h.43l1.06 2.01v-2.01h.32v2.4h-.44l-1.06-2v2h-.31v-2.4zm3.26 1.5q-.36 0-.49.08-.14.08-.14.28 0 .15.1.25.1.09.28.09.25 0 .4-.17.15-.17.15-.46v-.07h-.3zm.59-.13v1.03h-.29v-.27q-.1.16-.25.24-.15.08-.37.08-.28 0-.44-.16-.16-.16-.16-.41 0-.3.2-.46.2-.15.61-.15h.42v-.03q0-.2-.13-.31-.13-.11-.38-.11-.15 0-.3.04t-.28.11v-.27q.16-.06.32-.09.15-.03.3-.03.39 0 .58.2.19.2.19.61zm.98-1.99v.54h.54v.16h-.54v.54h-.16v-.54h-.54v-.16h.54v-.54h.16zm29.4.77H58l1.06 2.01v-2.01h.32v2.4h-.44l-1.06-2v2h-.31v-2.4zm3.26 1.5q-.36 0-.49.08-.14.08-.14.28 0 .15.1.25.1.09.28.09.25 0 .4-.17.15-.17.15-.46v-.07h-.3zm.59-.13v1.03h-.29v-.27q-.1.16-.25.24-.15.08-.37.08-.28 0-.44-.16-.16-.16-.16-.41 0-.3.2-.46.2-.15.61-.15h.42v-.03q0-.2-.13-.31-.13-.11-.38-.11-.15 0-.3.04t-.28.11v-.27q.16-.06.32-.09.15-.03.3-.03.39 0 .58.2.19.2.19.61zm.97-1.99v.54h.54v.16h-.54v.54h-.16v-.54h-.54v-.16h.54v-.54h.16zm18.43-58.78h.43l1.06 2.01v-2.01h.32v2.4h-.44l-1.06-2v2h-.31v-2.4zm3.26 1.49q-.36 0-.49.08-.14.08-.14.28 0 .15.1.25.1.09.28.09.25 0 .4-.17.15-.17.15-.46v-.07h-.3zm.59-.12v1.03h-.29v-.27q-.1.16-.25.24-.15.08-.37.08-.28 0-.44-.16-.16-.16-.16-.41 0-.3.2-.46.2-.15.61-.15h.42v-.03q0-.2-.13-.31-.13-.11-.38-.11-.15 0-.3.04t-.28.11v-.27q.16-.06.32-.09.15-.03.3-.03.39 0 .58.2.19.2.19.61zm.97-1.99v.54h.54v.16h-.54v.54h-.16v-.54h-.54v-.16h.54v-.54h.16zm.77 10.49h.43l1.06 2.01v-2.01h.32v2.4h-.44l-1.06-2v2h-.31v-2.4zm3.26 1.5q-.36 0-.49.08-.14.08-.14.28 0 .15.1.25.1.09.28.09.25 0 .4-.17.15-.17.15-.46v-.07h-.3zm.59-.13v1.03h-.29v-.27q-.1.16-.25.24-.15.08-.37.08-.28 0-.44-.16-.16-.16-.16-.41 0-.3.2-.46.2-.15.61-.15h.42v-.03q0-.2-.13-.31-.13-.11-.38-.11-.15 0-.3.04t-.28.11v-.27q.16-.06.32-.09.15-.03.3-.03.39 0 .58.2.19.2.19.61zm.98-1.99v.54h.54v.16h-.54v.54h-.16v-.54h-.54v-.16h.54v-.54h.16zm23.75 10.38h.43l1.06 2.01v-2.01h.32v2.4h-.44l-1.06-2v2h-.31v-2.4zm3.27 1.49q-.36 0-.49.08-.14.08-.14.28 0 .15.1.25.1.09.28.09.25 0 .4-.17.15-.17.15-.46v-.07h-.3zm.59-.12v1.03h-.29v-.27q-.1.16-.25.24-.15.08-.37.08-.28 0-.44-.16-.16-.16-.16-.41 0-.3.2-.46.2-.15.61-.15h.42v-.03q0-.2-.13-.31-.13-.11-.38-.11-.15 0-.3.04t-.28.11v-.27q.16-.06.32-.09.15-.03.3-.03.39 0 .58.2.19.2.19.61zm.97-1.99v.54h.54v.16h-.54v.54h-.16v-.54h-.54v-.16h.54v-.54h.16zm.88 10.43h.43l1.06 2.01v-2.01h.32v2.4h-.44l-1.06-2v2h-.31v-2.4zm3.27 1.49q-.36 0-.49.08-.14.08-.14.28 0 .15.1.25.1.09.28.09.25 0 .4-.17.15-.17.15-.46v-.07h-.3zm.59-.12v1.03h-.29v-.27q-.1.16-.25.24-.15.08-.37.08-.28 0-.44-.16-.16-.16-.16-.41 0-.3.2-.46.2-.15.61-.15h.42v-.03q0-.2-.13-.31-.13-.11-.38-.11-.15 0-.3.04t-.28.11v-.27q.16-.06.32-.09.15-.03.3-.03.39 0 .58.2.19.2.19.61zm.97-1.99v.54h.54v.16h-.54v.54h-.16v-.54h-.54v-.16h.54v-.54h.16zm-1.1 9.32h.43l1.06 2.01v-2.01h.32v2.4h-.44l-1.06-2v2h-.31v-2.4zm3.27 1.5q-.36 0-.49.08-.14.08-.14.28 0 .15.1.25.1.09.28.09.25 0 .4-.17.15-.17.15-.46v-.07h-.3zm.58-.12v1.03h-.29v-.27q-.1.16-.25.24-.15.08-.37.08-.28 0-.44-.16-.16-.16-.16-.41 0-.3.2-.46.2-.15.61-.15h.42v-.03q0-.2-.13-.31-.13-.11-.38-.11-.15 0-.3.04t-.28.11v-.27q.16-.06.32-.09.15-.03.3-.03.39 0 .58.2.19.2.19.61zm.98-1.99v.54h.54v.16h-.54v.54h-.16v-.54h-.54v-.16h.54v-.54h.16zm-19.98 11.89h.43l1.06 2.01v-2.01h.32v2.4h-.44l-1.06-2v2h-.31v-2.4zm3.26 1.49q-.36 0-.49.08-.14.08-.14.28 0 .15.1.25.1.09.28.09.25 0 .4-.17.15-.17.15-.46v-.07h-.3zm.59-.12v1.03h-.29v-.27q-.1.16-.25.24-.15.08-.37.08-.28 0-.44-.16-.16-.16-.16-.41 0-.3.2-.46.2-.15.61-.15h.42v-.03q0-.2-.13-.31-.13-.11-.38-.11-.15 0-.3.04t-.28.11v-.27q.16-.06.32-.09.15-.03.3-.03.39 0 .58.2.19.2.19.61zm.98-1.99v.54h.54v.16h-.54v.54h-.16v-.54h-.54v-.16h.54v-.54h.16zM80.52 73.51h.43l1.06 2.01v-2.01h.32v2.4h-.44l-1.06-2v2h-.31v-2.4zM83.78 75q-.36 0-.49.08-.14.08-.14.28 0 .15.1.25.1.09.28.09.25 0 .4-.17.15-.17.15-.46V75h-.3zm.59-.12v1.03h-.29v-.27q-.1.16-.25.24-.15.08-.37.08-.28 0-.44-.16-.16-.16-.16-.41 0-.3.2-.46.2-.15.61-.15h.42v-.03q0-.2-.13-.31-.13-.11-.38-.11-.15 0-.3.04t-.28.11v-.27q.16-.06.32-.09.15-.03.3-.03.39 0 .58.2.19.2.19.61zm.97-1.99v.54h.54v.16h-.54v.54h-.16v-.54h-.54v-.16h.54v-.54h.16zM63.6 23.81h.43l1.06 2.01v-2.01h.32v2.4h-.44l-1.06-2v2h-.31v-2.4zm3.27 1.49q-.36 0-.49.08-.14.08-.14.28 0 .15.1.25.1.09.28.09.25 0 .4-.17.15-.17.15-.46v-.07h-.3zm.58-.12v1.03h-.29v-.27q-.1.16-.25.24-.15.08-.37.08-.28 0-.44-.16-.16-.16-.16-.41 0-.3.2-.46.2-.15.61-.15h.42v-.03q0-.2-.13-.31-.13-.11-.38-.11-.15 0-.3.04t-.28.11v-.27q.16-.06.32-.09.15-.03.3-.03.39 0 .58.2.19.2.19.61zm.98-1.99v.54h.54v.16h-.54v.54h-.16v-.54h-.54v-.16h.54v-.54h.16zm3.28-21.32l-.21 1.09h-.3l.21-1.08q.02-.08.02-.13.01-.06.01-.09 0-.13-.09-.21-.09-.08-.24-.08-.24 0-.41.16-.17.16-.22.43l-.2 1h-.3l.35-1.8h.3l-.06.28q.12-.15.3-.24.17-.09.37-.09.24 0 .37.13t.13.36q0 .06-.01.12l-.02.14zm.63-.06v.88h.52q.26 0 .39-.11.12-.11.12-.33 0-.23-.12-.33-.12-.11-.39-.11h-.52zm0-.98v.72h.48q.24 0 .35-.09.12-.09.12-.27 0-.18-.12-.27-.12-.09-.35-.09h-.48zm-.33-.27h.83q.37 0 .57.15.2.15.2.44 0 .22-.1.35-.1.13-.3.16.24.05.37.21.13.16.13.41 0 .32-.22.5t-.62.18h-.86V.56zm2.22 1.69V1.16h.29v1.08q0 .25.1.38t.3.13q.24 0 .38-.15t.14-.42V1.16h.3v1.8h-.3v-.28q-.11.17-.25.25-.14.08-.33.08-.31 0-.47-.19-.16-.19-.16-.57zm.74-1.13zm-26.64 19.6q-.36 0-.56.26-.21.26-.21.72 0 .45.21.72.21.26.56.26.35 0 .56-.26.21-.26.21-.72 0-.45-.21-.72-.21-.26-.56-.26zm0-.27q.5 0 .8.34.3.34.3.91 0 .57-.3.91-.3.34-.8.34-.51 0-.81-.34-.3-.34-.3-.91 0-.57.3-.91.3-.34.81-.34zm-11.52.28q-.36 0-.56.26-.21.26-.21.72 0 .45.21.72.21.26.56.26.35 0 .56-.26.21-.26.21-.72 0-.45-.21-.72-.21-.26-.56-.26zm0-.26q.5 0 .8.34.3.34.3.91 0 .57-.3.91-.3.34-.8.34-.51 0-.81-.34-.3-.34-.3-.91 0-.57.3-.91.3-.34.81-.34zm-17.16 3.57q-.36 0-.56.26-.21.26-.21.72 0 .45.21.72.21.26.56.26.35 0 .56-.26.21-.26.21-.72 0-.45-.21-.72-.21-.26-.56-.26zm0-.27q.5 0 .8.34.3.34.3.91 0 .57-.3.91-.3.34-.8.34-.51 0-.81-.34-.3-.34-.3-.91 0-.57.3-.91.3-.34.81-.34zm-5.03-3.18v.32q-.18-.09-.35-.13-.16-.04-.32-.04-.26 0-.41.1-.14.1-.14.29 0 .16.1.24.1.08.36.13l.2.04q.36.07.53.25.17.17.17.47 0 .35-.23.53-.23.18-.69.18-.17 0-.36-.04-.19-.04-.4-.11v-.33q.2.11.39.17.19.06.37.06.28 0 .43-.11.15-.11.15-.31 0-.18-.11-.28-.11-.1-.35-.15l-.2-.04q-.36-.07-.53-.23-.16-.15-.16-.43 0-.32.22-.5t.62-.18q.17 0 .34.03.18.03.36.09zm-6.76-.16H9.1v.16H7.86v-.16zm2.62.3q-.36 0-.56.26-.21.26-.21.72 0 .45.21.72.21.26.56.26.35 0 .56-.26.21-.26.21-.72 0-.45-.21-.72-.21-.26-.56-.26zm0-.26q.5 0 .8.34.3.34.3.91 0 .57-.3.91-.3.34-.8.34-.51 0-.81-.34-.3-.34-.3-.91 0-.57.3-.91.3-.34.81-.34zm2.03 2.38q.14.03.22.12.08.09.08.23 0 .21-.15.33-.15.12-.42.12-.09 0-.19-.02t-.2-.05v-.19q.08.05.18.07.1.02.2.02.18 0 .28-.07.1-.07.1-.21 0-.13-.09-.2t-.25-.07h-.17v-.16h.18q.14 0 .22-.06.08-.06.08-.17 0-.11-.08-.17-.08-.06-.23-.06-.08 0-.17.02-.09.02-.2.05v-.18q.11-.03.21-.05.1-.02.18-.02.22 0 .35.1.13.1.13.27 0 .12-.07.2-.07.08-.19.11zm12.85 11.03q-.36 0-.56.26-.21.26-.21.72 0 .45.21.72.21.26.56.26.35 0 .56-.26.21-.26.21-.72 0-.45-.21-.72-.21-.26-.56-.26zm0-.26q.5 0 .8.34.3.34.3.91 0 .57-.3.91-.3.34-.8.34-.51 0-.81-.34-.3-.34-.3-.91 0-.57.3-.91.3-.34.81-.34zm-5.02-3.2v.32q-.18-.09-.35-.13-.16-.04-.32-.04-.26 0-.41.1-.14.1-.14.29 0 .16.1.24.1.08.36.13l.2.04q.36.07.53.25.17.17.17.47 0 .35-.23.53-.23.18-.69.18-.17 0-.36-.04-.19-.04-.4-.11v-.33q.2.11.39.17.19.06.37.06.28 0 .43-.11.15-.11.15-.31 0-.18-.11-.28-.11-.1-.35-.15l-.2-.04q-.36-.07-.53-.23-.16-.15-.16-.43 0-.32.22-.5t.62-.18q.17 0 .34.03.18.03.36.09zm-6.77-.16h1.24v.16h-1.24v-.16zm2.63.31q-.36 0-.56.26-.21.26-.21.72 0 .45.21.72.21.26.56.26.35 0 .56-.26.21-.26.21-.72 0-.45-.21-.72-.21-.26-.56-.26zm0-.27q.5 0 .8.34.3.34.3.91 0 .57-.3.91-.3.34-.8.34-.51 0-.81-.34-.3-.34-.3-.91 0-.57.3-.91.3-.34.81-.34zm2.03 2.39q.14.03.22.12.08.09.08.23 0 .21-.15.33-.15.12-.42.12-.09 0-.19-.02t-.2-.05v-.19q.08.05.18.07.1.02.2.02.18 0 .28-.07.1-.07.1-.21 0-.13-.09-.2t-.25-.07h-.17v-.16H18q.14 0 .22-.06.08-.06.08-.17 0-.11-.08-.17-.08-.06-.23-.06-.08 0-.17.02-.09.02-.2.05v-.18q.11-.03.21-.05.1-.02.18-.02.22 0 .35.1.13.1.13.27 0 .12-.07.2-.07.08-.19.11zm18.56 7.86q-.36 0-.56.26-.21.26-.21.72 0 .45.21.72.21.26.56.26.35 0 .56-.26.21-.26.21-.72 0-.45-.21-.72-.21-.26-.56-.26zm0-.27q.5 0 .8.34.3.34.3.91 0 .57-.3.91-.3.34-.8.34-.51 0-.81-.34-.3-.34-.3-.91 0-.57.3-.91.3-.34.81-.34zm-5.04 3.41v.32q-.18-.09-.35-.13-.16-.04-.32-.04-.26 0-.41.1-.14.1-.14.29 0 .16.1.24.1.08.36.13l.2.04q.36.07.53.25.17.17.17.47 0 .35-.23.53-.23.18-.69.18-.17 0-.36-.04-.19-.04-.4-.11v-.33q.2.11.39.17.19.06.37.06.28 0 .43-.11.15-.11.15-.31 0-.18-.11-.28-.11-.1-.35-.15l-.2-.04q-.36-.07-.53-.23-.16-.15-.16-.43 0-.32.22-.5t.62-.18q.17 0 .34.03.18.03.36.09zm-6.77-.16h1.24v.16h-1.24v-.16zm2.63.3q-.36 0-.56.26-.21.26-.21.72 0 .45.21.72.21.26.56.26.35 0 .56-.26.21-.26.21-.72 0-.45-.21-.72-.21-.26-.56-.26zm0-.27q.5 0 .8.34.3.34.3.91 0 .57-.3.91-.3.34-.8.34-.51 0-.81-.34-.3-.34-.3-.91 0-.57.3-.91.3-.34.81-.34zm2.03 2.39q.14.03.22.12.08.09.08.23 0 .21-.15.33-.15.12-.42.12-.09 0-.19-.02t-.2-.05v-.19q.08.05.18.07.1.02.2.02.18 0 .28-.07.1-.07.1-.21 0-.13-.09-.2t-.25-.07h-.17v-.16h.18q.14 0 .22-.06.08-.06.08-.17 0-.11-.08-.17-.08-.06-.23-.06-.08 0-.17.02-.09.02-.2.05v-.18q.11-.03.21-.05.1-.02.18-.02.22 0 .35.1.13.1.13.27 0 .12-.07.2-.07.08-.19.11zm18.7-12.05q-.36 0-.56.26-.21.26-.21.72 0 .45.21.72.21.26.56.26.35 0 .56-.26.21-.26.21-.72 0-.45-.21-.72-.21-.26-.56-.26zm0-.26q.5 0 .8.34.3.34.3.91 0 .57-.3.91-.3.34-.8.34-.51 0-.81-.34-.3-.34-.3-.91 0-.57.3-.91.3-.34.81-.34zm-5.79 10.22q-.36 0-.56.26-.21.26-.21.72 0 .45.21.72.21.26.56.26.35 0 .56-.26.21-.26.21-.72 0-.45-.21-.72-.21-.26-.56-.26zm0-.26q.5 0 .8.34.3.34.3.91 0 .57-.3.91-.3.34-.8.34-.51 0-.81-.34-.3-.34-.3-.91 0-.57.3-.91.3-.34.81-.34zm-5.79 16.75q-.36 0-.56.26-.21.26-.21.72 0 .45.21.72.21.26.56.26.35 0 .56-.26.21-.26.21-.72 0-.45-.21-.72-.21-.26-.56-.26zm0-.26q.5 0 .8.34.3.34.3.91 0 .57-.3.91-.3.34-.8.34-.51 0-.81-.34-.3-.34-.3-.91 0-.57.3-.91.3-.34.81-.34zm-5.03 3.4v.32q-.18-.09-.35-.13-.16-.04-.32-.04-.26 0-.41.1-.14.1-.14.29 0 .16.1.24.1.08.36.13l.2.04q.36.07.53.25.17.17.17.47 0 .35-.23.53-.23.18-.69.18-.17 0-.36-.04-.19-.04-.4-.11v-.33q.2.11.39.17.19.06.37.06.28 0 .43-.11.15-.11.15-.31 0-.18-.11-.28-.11-.1-.35-.15l-.2-.04q-.36-.07-.53-.23-.16-.15-.16-.43 0-.32.22-.5t.62-.18q.17 0 .34.03.18.03.36.09zm-6.77-.16h1.24v.16h-1.24v-.16zm2.62.3q-.36 0-.56.26-.21.26-.21.72 0 .45.21.72.21.26.56.26.35 0 .56-.26.21-.26.21-.72 0-.45-.21-.72-.21-.26-.56-.26zm0-.26q.5 0 .8.34.3.34.3.91 0 .57-.3.91-.3.34-.8.34-.51 0-.81-.34-.3-.34-.3-.91 0-.57.3-.91.3-.34.81-.34zm2.03 2.38q.14.03.22.12.08.09.08.23 0 .21-.15.33-.15.12-.42.12-.09 0-.19-.02t-.2-.05v-.19q.08.05.18.07.1.02.2.02.18 0 .28-.07.1-.07.1-.21 0-.13-.09-.2t-.25-.07h-.17v-.16h.18q.14 0 .22-.06.08-.06.08-.17 0-.11-.08-.17-.08-.06-.23-.06-.08 0-.17.02-.09.02-.2.05v-.18q.11-.03.21-.05.1-.02.18-.02.22 0 .35.1.13.1.13.27 0 .12-.07.2-.07.08-.19.11zm18.54-5.37q-.36 0-.56.26-.21.26-.21.72 0 .45.21.72.21.26.56.26.35 0 .56-.26.21-.26.21-.72 0-.45-.21-.72-.21-.26-.56-.26zm0-.27q.5 0 .8.34.3.34.3.91 0 .57-.3.91-.3.34-.8.34-.51 0-.81-.34-.3-.34-.3-.91 0-.57.3-.91.3-.34.81-.34zm6.39 3.47v.32q-.18-.09-.35-.13-.16-.04-.32-.04-.26 0-.41.1-.14.1-.14.29 0 .16.1.24.1.08.36.13l.2.04q.36.07.53.25.17.17.17.47 0 .35-.23.53-.23.18-.69.18-.17 0-.36-.04-.19-.04-.4-.11v-.33q.2.11.39.17.19.06.37.06.28 0 .43-.11.15-.11.15-.31 0-.18-.11-.28-.11-.1-.35-.15l-.2-.04q-.36-.07-.53-.23-.16-.15-.16-.43 0-.32.22-.5t.62-.18q.17 0 .34.03.18.03.36.09zm1.63.14q-.36 0-.56.26-.21.26-.21.72 0 .45.21.72.21.26.56.26.35 0 .56-.26.21-.26.21-.72 0-.45-.21-.72-.21-.26-.56-.26zm0-.27q.5 0 .8.34.3.34.3.91 0 .57-.3.91-.3.34-.8.34-.51 0-.81-.34-.3-.34-.3-.91 0-.57.3-.91.3-.34.81-.34zm2.03 2.39q.14.03.22.12.08.09.08.23 0 .21-.15.33-.15.12-.42.12-.09 0-.19-.02t-.2-.05v-.19q.08.05.18.07.1.02.2.02.18 0 .28-.07.1-.07.1-.21 0-.13-.09-.2t-.25-.07h-.17v-.16h.18q.14 0 .22-.06.08-.06.08-.17 0-.11-.08-.17-.08-.06-.23-.06-.08 0-.17.02-.09.02-.2.05v-.18q.11-.03.21-.05.1-.02.18-.02.22 0 .35.1.13.1.13.27 0 .12-.07.2-.07.08-.19.11zm-.65-2.42h1.24v.16h-1.24v-.16zm2.11-9.56q-.36 0-.56.26-.21.26-.21.72 0 .45.21.72.21.26.56.26.35 0 .56-.26.21-.26.21-.72 0-.45-.21-.72-.21-.26-.56-.26zm0-.27q.5 0 .8.34.3.34.3.91 0 .57-.3.91-.3.34-.8.34-.51 0-.81-.34-.3-.34-.3-.91 0-.57.3-.91.3-.34.81-.34zm5.82-9.67q-.36 0-.56.26-.21.26-.21.72 0 .45.21.72.21.26.56.26.35 0 .56-.26.21-.26.21-.72 0-.45-.21-.72-.21-.26-.56-.26zm0-.27q.5 0 .8.34.3.34.3.91 0 .57-.3.91-.3.34-.8.34-.51 0-.81-.34-.3-.34-.3-.91 0-.57.3-.91.3-.34.81-.34zm11.49-12.9q-.36 0-.56.26-.21.26-.21.72 0 .45.21.72.21.26.56.26.35 0 .56-.26.21-.26.21-.72 0-.45-.21-.72-.21-.26-.56-.26zm0-.27q.5 0 .8.34.3.34.3.91 0 .57-.3.91-.3.34-.8.34-.51 0-.81-.34-.3-.34-.3-.91 0-.57.3-.91.3-.34.81-.34zm.72-6.48v.32q-.18-.09-.35-.13-.16-.04-.32-.04-.26 0-.41.1-.14.1-.14.29 0 .16.1.24.1.08.36.13l.2.04q.36.07.53.25.17.17.17.47 0 .35-.23.53-.23.18-.69.18-.17 0-.36-.04-.19-.04-.4-.11v-.33q.2.11.39.17.19.06.37.06.28 0 .43-.11.15-.11.15-.31 0-.18-.11-.28-.11-.1-.35-.15l-.2-.04q-.36-.07-.53-.23-.16-.15-.16-.43 0-.32.22-.5t.62-.18q.17 0 .34.03.18.03.36.09zm1.62.14q-.36 0-.56.26-.21.26-.21.72 0 .45.21.72.21.26.56.26.35 0 .56-.26.21-.26.21-.72 0-.45-.21-.72-.21-.26-.56-.26zm0-.26q.5 0 .8.34.3.34.3.91 0 .57-.3.91-.3.34-.8.34-.51 0-.81-.34-.3-.34-.3-.91 0-.57.3-.91.3-.34.81-.34zm2.03 2.39q.14.03.22.12.08.09.08.23 0 .21-.15.33-.15.12-.42.12-.09 0-.19-.02t-.2-.05v-.19q.08.05.18.07.1.02.2.02.18 0 .28-.07.1-.07.1-.21 0-.13-.09-.2t-.25-.07h-.17v-.16h.18q.14 0 .22-.06.08-.06.08-.17 0-.11-.08-.17-.08-.06-.23-.06-.08 0-.17.02-.09.02-.2.05v-.18q.11-.03.21-.05.1-.02.18-.02.22 0 .35.1.13.1.13.27 0 .12-.07.2-.07.08-.19.11zm-.65-2.43h1.24V24h-1.24v-.16zm1.91 16.8q-.36 0-.56.26-.21.26-.21.72 0 .45.21.72.21.26.56.26.35 0 .56-.26.21-.26.21-.72 0-.45-.21-.72-.21-.26-.56-.26zm0-.27q.5 0 .8.34.3.34.3.91 0 .57-.3.91-.3.34-.8.34-.51 0-.81-.34-.3-.34-.3-.91 0-.57.3-.91.3-.34.81-.34zm.7-6.48v.32q-.18-.09-.35-.13-.16-.04-.32-.04-.26 0-.41.1-.14.1-.14.29 0 .16.1.24.1.08.36.13l.2.04q.36.07.53.25.17.17.17.47 0 .35-.23.53-.23.18-.69.18-.17 0-.36-.04-.19-.04-.4-.11v-.33q.2.11.39.17.19.06.37.06.28 0 .43-.11.15-.11.15-.31 0-.18-.11-.28-.11-.1-.35-.15l-.2-.04q-.36-.07-.53-.23-.16-.15-.16-.43 0-.32.22-.5t.62-.18q.17 0 .34.03.18.03.36.09zm1.63.15q-.36 0-.56.26-.21.26-.21.72 0 .45.21.72.21.26.56.26.35 0 .56-.26.21-.26.21-.72 0-.45-.21-.72-.21-.26-.56-.26zm0-.27q.5 0 .8.34.3.34.3.91 0 .57-.3.91-.3.34-.8.34-.51 0-.81-.34-.3-.34-.3-.91 0-.57.3-.91.3-.34.81-.34zm2.03 2.39q.14.03.22.12.08.09.08.23 0 .21-.15.33-.15.12-.42.12-.09 0-.19-.02t-.2-.05v-.19q.08.05.18.07.1.02.2.02.18 0 .28-.07.1-.07.1-.21 0-.13-.09-.2t-.25-.07h-.17v-.16h.18q.14 0 .22-.06.08-.06.08-.17 0-.11-.08-.17-.08-.06-.23-.06-.08 0-.17.02-.09.02-.2.05v-.18q.11-.03.21-.05.1-.02.18-.02.22 0 .35.1.13.1.13.27 0 .12-.07.2-.07.08-.19.11zm-.65-2.43h1.24v.16h-1.24v-.16zM82.6 53.87q-.36 0-.56.26-.21.26-.21.72 0 .45.21.72.21.26.56.26.35 0 .56-.26.21-.26.21-.72 0-.45-.21-.72-.21-.26-.56-.26zm0-.27q.5 0 .8.34.3.34.3.91 0 .57-.3.91-.3.34-.8.34-.51 0-.81-.34-.3-.34-.3-.91 0-.57.3-.91.3-.34.81-.34zm5.75-9.71q-.36 0-.56.26-.21.26-.21.72 0 .45.21.72.21.26.56.26.35 0 .56-.26.21-.26.21-.72 0-.45-.21-.72-.21-.26-.56-.26zm0-.27q.5 0 .8.34.3.34.3.91 0 .57-.3.91-.3.34-.8.34-.51 0-.81-.34-.3-.34-.3-.91 0-.57.3-.91.3-.34.81-.34zm11.4-12.98q-.36 0-.56.26-.21.26-.21.72 0 .45.21.72.21.26.56.26.35 0 .56-.26.21-.26.21-.72 0-.45-.21-.72-.21-.26-.56-.26zm0-.26q.5 0 .8.34.3.34.3.91 0 .57-.3.91-.3.34-.8.34-.51 0-.81-.34-.3-.34-.3-.91 0-.57.3-.91.3-.34.81-.34zm6.43 3.4v.32q-.18-.09-.35-.13-.16-.04-.32-.04-.26 0-.41.1-.14.1-.14.29 0 .16.1.24.1.08.36.13l.2.04q.36.07.53.25.17.17.17.47 0 .35-.23.53-.23.18-.69.18-.17 0-.36-.04-.19-.04-.4-.11v-.33q.2.11.39.17.19.06.37.06.28 0 .43-.11.15-.11.15-.31 0-.18-.11-.28-.11-.1-.35-.15l-.2-.04q-.36-.07-.53-.23-.16-.15-.16-.43 0-.32.22-.5t.62-.18q.17 0 .34.03.18.03.36.09zm1.62.15q-.36 0-.56.26-.21.26-.21.72 0 .45.21.72.21.26.56.26.35 0 .56-.26.21-.26.21-.72 0-.45-.21-.72-.21-.26-.56-.26zm0-.27q.5 0 .8.34.3.34.3.91 0 .57-.3.91-.3.34-.8.34-.51 0-.81-.34-.3-.34-.3-.91 0-.57.3-.91.3-.34.81-.34zm2.04 2.39q.14.03.22.12.08.09.08.23 0 .21-.15.33-.15.12-.42.12-.09 0-.19-.02t-.2-.05v-.19q.08.05.18.07.1.02.2.02.18 0 .28-.07.1-.07.1-.21 0-.13-.09-.2t-.25-.07h-.17v-.16h.18q.14 0 .22-.06.08-.06.08-.17 0-.11-.08-.17-.08-.06-.23-.06-.08 0-.17.02-.09.02-.2.05v-.18q.11-.03.21-.05.1-.02.18-.02.22 0 .35.1.13.1.13.27 0 .12-.07.2-.07.08-.19.11zm-.65-2.43h1.24v.16h-1.24v-.16zm-3.73 6.88q-.36 0-.56.26-.21.26-.21.72 0 .45.21.72.21.26.56.26.35 0 .56-.26.21-.26.21-.72 0-.45-.21-.72-.21-.26-.56-.26zm0-.27q.5 0 .8.34.3.34.3.91 0 .57-.3.91-.3.34-.8.34-.51 0-.81-.34-.3-.34-.3-.91 0-.57.3-.91.3-.34.81-.34zm6.43 3.39v.32q-.18-.09-.35-.13-.16-.04-.32-.04-.26 0-.41.1-.14.1-.14.29 0 .16.1.24.1.08.36.13l.2.04q.36.07.53.25.17.17.17.47 0 .35-.23.53-.23.18-.69.18-.17 0-.36-.04-.19-.04-.4-.11v-.33q.2.11.39.17.19.06.37.06.28 0 .43-.11.15-.11.15-.31 0-.18-.11-.28-.11-.1-.35-.15l-.2-.04q-.36-.07-.53-.23-.16-.15-.16-.43 0-.32.22-.5t.62-.18q.17 0 .34.03.18.03.36.09zm1.62.15q-.36 0-.56.26-.21.26-.21.72 0 .45.21.72.21.26.56.26.35 0 .56-.26.21-.26.21-.72 0-.45-.21-.72-.21-.26-.56-.26zm0-.27q.5 0 .8.34.3.34.3.91 0 .57-.3.91-.3.34-.8.34-.51 0-.81-.34-.3-.34-.3-.91 0-.57.3-.91.3-.34.81-.34zm2.04 2.39q.14.03.22.12.08.09.08.23 0 .21-.15.33-.15.12-.42.12-.09 0-.19-.02t-.2-.05v-.19q.08.05.18.07.1.02.2.02.18 0 .28-.07.1-.07.1-.21 0-.13-.09-.2t-.25-.07h-.17v-.16h.18q.14 0 .22-.06.08-.06.08-.17 0-.11-.08-.17-.08-.06-.23-.06-.08 0-.17.02-.09.02-.2.05v-.18q.11-.03.21-.05.1-.02.18-.02.22 0 .35.1.13.1.13.27 0 .12-.07.2-.07.08-.19.11zm-.65-2.43h1.24v.16h-1.24v-.16zm-5.68 12.36q-.36 0-.56.26-.21.26-.21.72 0 .45.21.72.21.26.56.26.35 0 .56-.26.21-.26.21-.72 0-.45-.21-.72-.21-.26-.56-.26zm0-.27q.5 0 .8.34.3.34.3.91 0 .57-.3.91-.3.34-.8.34-.51 0-.81-.34-.3-.34-.3-.91 0-.57.3-.91.3-.34.81-.34zm6.4-3.21v.32q-.18-.09-.35-.13-.16-.04-.32-.04-.26 0-.41.1-.14.1-.14.29 0 .16.1.24.1.08.36.13l.2.04q.36.07.53.25.17.17.17.47 0 .35-.23.53-.23.18-.69.18-.17 0-.36-.04-.19-.04-.4-.11v-.33q.2.11.39.17.19.06.37.06.28 0 .43-.11.15-.11.15-.31 0-.18-.11-.28-.11-.1-.35-.15l-.2-.04q-.36-.07-.53-.23-.16-.15-.16-.43 0-.32.22-.5t.62-.18q.17 0 .34.03.18.03.36.09zm1.62.14q-.36 0-.56.26-.21.26-.21.72 0 .45.21.72.21.26.56.26.35 0 .56-.26.21-.26.21-.72 0-.45-.21-.72-.21-.26-.56-.26zm0-.27q.5 0 .8.34.3.34.3.91 0 .57-.3.91-.3.34-.8.34-.51 0-.81-.34-.3-.34-.3-.91 0-.57.3-.91.3-.34.81-.34zm2.04 2.39q.14.03.22.12.08.09.08.23 0 .21-.15.33-.15.12-.42.12-.09 0-.19-.02t-.2-.05v-.19q.08.05.18.07.1.02.2.02.18 0 .28-.07.1-.07.1-.21 0-.13-.09-.2t-.25-.07h-.17v-.16h.18q.14 0 .22-.06.08-.06.08-.17 0-.11-.08-.17-.08-.06-.23-.06-.08 0-.17.02-.09.02-.2.05v-.18q.11-.03.21-.05.1-.02.18-.02.22 0 .35.1.13.1.13.27 0 .12-.07.2-.07.08-.19.11zm-.66-2.42h1.24v.16h-1.24v-.16zm-24.58 8.26q-.36 0-.56.26-.21.26-.21.72 0 .45.21.72.21.26.56.26.35 0 .56-.26.21-.26.21-.72 0-.45-.21-.72-.21-.26-.56-.26zm0-.27q.5 0 .8.34.3.34.3.91 0 .57-.3.91-.3.34-.8.34-.51 0-.81-.34-.3-.34-.3-.91 0-.57.3-.91.3-.34.81-.34zm6.43 3.41v.32q-.18-.09-.35-.13-.16-.04-.32-.04-.26 0-.41.1-.14.1-.14.29 0 .16.1.24.1.08.36.13l.2.04q.36.07.53.25.17.17.17.47 0 .35-.23.53-.23.18-.69.18-.17 0-.36-.04-.19-.04-.4-.11v-.33q.2.11.39.17.19.06.37.06.28 0 .43-.11.15-.11.15-.31 0-.18-.11-.28-.11-.1-.35-.15l-.2-.04q-.36-.07-.53-.23-.16-.15-.16-.43 0-.32.22-.5t.62-.18q.17 0 .34.03.18.03.36.09zm1.62.14q-.36 0-.56.26-.21.26-.21.72 0 .45.21.72.21.26.56.26.35 0 .56-.26.21-.26.21-.72 0-.45-.21-.72-.21-.26-.56-.26zm0-.26q.5 0 .8.34.3.34.3.91 0 .57-.3.91-.3.34-.8.34-.51 0-.81-.34-.3-.34-.3-.91 0-.57.3-.91.3-.34.81-.34zm2.03 2.38q.14.03.22.12.08.09.08.23 0 .21-.15.33-.15.12-.42.12-.09 0-.19-.02t-.2-.05v-.19q.08.05.18.07.1.02.2.02.18 0 .28-.07.1-.07.1-.21 0-.13-.09-.2t-.25-.07h-.17v-.16h.18q.14 0 .22-.06.08-.06.08-.17 0-.11-.08-.17-.08-.06-.23-.06-.08 0-.17.02-.09.02-.2.05v-.18q.11-.03.21-.05.1-.02.18-.02.22 0 .35.1.13.1.13.27 0 .12-.07.2-.07.08-.19.11zm-.65-2.42h1.24v.16h-1.24v-.16zm-32.42-2.91q-.36 0-.56.26-.21.26-.21.72 0 .45.21.72.21.26.56.26.35 0 .56-.26.21-.26.21-.72 0-.45-.21-.72-.21-.26-.56-.26zm0-.27q.5 0 .8.34.3.34.3.91 0 .57-.3.91-.3.34-.8.34-.51 0-.81-.34-.3-.34-.3-.91 0-.57.3-.91.3-.34.81-.34zm6.4 3.44V64q-.18-.09-.35-.13-.16-.04-.32-.04-.26 0-.41.1-.14.1-.14.29 0 .16.1.24.1.08.36.13l.2.04q.36.07.53.25.17.17.17.47 0 .35-.23.53-.23.18-.69.18-.17 0-.36-.04-.19-.04-.4-.11v-.33q.2.11.39.17.19.06.37.06.28 0 .43-.11.15-.11.15-.31 0-.18-.11-.28-.11-.1-.35-.15l-.2-.04q-.36-.07-.53-.23-.16-.15-.16-.43 0-.32.22-.5t.62-.18q.17 0 .34.03.18.03.36.09zm1.63.15q-.36 0-.56.26-.21.26-.21.72 0 .45.21.72.21.26.56.26.35 0 .56-.26.21-.26.21-.72 0-.45-.21-.72-.21-.26-.56-.26zm0-.27q.5 0 .8.34.3.34.3.91 0 .57-.3.91-.3.34-.8.34-.51 0-.81-.34-.3-.34-.3-.91 0-.57.3-.91.3-.34.81-.34zm2.03 2.39q.14.03.22.12.08.09.08.23 0 .21-.15.33-.15.12-.42.12-.09 0-.19-.02t-.2-.05v-.19q.08.05.18.07.1.02.2.02.18 0 .28-.07.1-.07.1-.21 0-.13-.09-.2t-.25-.07h-.17v-.16h.18q.14 0 .22-.06.08-.06.08-.17 0-.11-.08-.17-.08-.06-.23-.06-.08 0-.17.02-.09.02-.2.05v-.18q.11-.03.21-.05.1-.02.18-.02.22 0 .35.1.13.1.13.27 0 .12-.07.2-.07.08-.19.11zm-.65-2.43h1.24v.16h-1.24v-.16zM59.73 40.53q-.36 0-.56.26-.21.26-.21.72 0 .45.21.72.21.26.56.26.35 0 .56-.26.21-.26.21-.72 0-.45-.21-.72-.21-.26-.56-.26zm0-.26q.5 0 .8.34.3.34.3.91 0 .57-.3.91-.3.34-.8.34-.51 0-.81-.34-.3-.34-.3-.91 0-.57.3-.91.3-.34.81-.34zm.73-6.48v.32q-.18-.09-.35-.13-.16-.04-.32-.04-.26 0-.41.1-.14.1-.14.29 0 .16.1.24.1.08.36.13l.2.04q.36.07.53.25.17.17.17.47 0 .35-.23.53-.23.18-.69.18-.17 0-.36-.04-.19-.04-.4-.11v-.33q.2.11.39.17.19.06.37.06.28 0 .43-.11.15-.11.15-.31 0-.18-.11-.28-.11-.1-.35-.15l-.2-.04q-.36-.07-.53-.23-.16-.15-.16-.43 0-.32.22-.5t.62-.18q.17 0 .34.03.18.03.36.09zm1.63.14q-.36 0-.56.26-.21.26-.21.72 0 .45.21.72.21.26.56.26.35 0 .56-.26.21-.26.21-.72 0-.45-.21-.72-.21-.26-.56-.26zm0-.26q.5 0 .8.34.3.34.3.91 0 .57-.3.91-.3.34-.8.34-.51 0-.81-.34-.3-.34-.3-.91 0-.57.3-.91.3-.34.81-.34zm2.03 2.38q.14.03.22.12.08.09.08.23 0 .21-.15.33-.15.12-.42.12-.09 0-.19-.02t-.2-.05v-.19q.08.05.18.07.1.02.2.02.18 0 .28-.07.1-.07.1-.21 0-.13-.09-.2t-.25-.07h-.17v-.16h.18q.14 0 .22-.06.08-.06.08-.17 0-.11-.08-.17-.08-.06-.23-.06-.08 0-.17.02-.09.02-.2.05v-.18q.11-.03.21-.05.1-.02.18-.02.22 0 .35.1.13.1.13.27 0 .12-.07.2-.07.08-.19.11zm-.65-2.42h1.24v.16h-1.24v-.16z" class="atom" stroke="none"/></g></g></svg>